<mxfile host="app.diagrams.net" modified="2023-12-19T01:54:36.935Z" agent="Mozilla/5.0 (Macintosh; Intel Mac OS X 10_15_6) AppleWebKit/605.1.15 (KHTML, like Gecko) Version/14.0.2 Safari/605.1.15" etag="yyvVNcxrTVW1MY-rNjp0" version="22.1.11" type="google" pages="3">
  <diagram name="Страница — 1" id="Ipnl_R6qyOw_HwZ09M7R">
    <mxGraphModel grid="1" page="1" gridSize="10" guides="1" tooltips="1" connect="1" arrows="1" fold="1" pageScale="1" pageWidth="827" pageHeight="1169" math="0" shadow="0">
      <root>
        <mxCell id="0" />
        <mxCell id="1" parent="0" />
        <mxCell id="I4UzzUB1rxEfxgEAjV2_-27" value="" style="endArrow=none;html=1;rounded=0;exitX=0.5;exitY=1;exitDx=0;exitDy=0;" edge="1" parent="1" source="I4UzzUB1rxEfxgEAjV2_-26">
          <mxGeometry width="50" height="50" relative="1" as="geometry">
            <mxPoint x="800" y="340" as="sourcePoint" />
            <mxPoint x="900" y="730" as="targetPoint" />
          </mxGeometry>
        </mxCell>
        <mxCell id="I4UzzUB1rxEfxgEAjV2_-6" value="" style="edgeStyle=orthogonalEdgeStyle;rounded=0;orthogonalLoop=1;jettySize=auto;html=1;exitX=0.5;exitY=1;exitDx=0;exitDy=0;endArrow=none;endFill=0;fontSize=13;entryX=0.5;entryY=0;entryDx=0;entryDy=0;" edge="1" parent="1" source="W8oxkkZLSI8McA3j56vo-14" target="I4UzzUB1rxEfxgEAjV2_-45">
          <mxGeometry relative="1" as="geometry">
            <mxPoint x="405" y="295" as="sourcePoint" />
            <mxPoint x="405" y="695" as="targetPoint" />
          </mxGeometry>
        </mxCell>
        <mxCell id="W8oxkkZLSI8McA3j56vo-2" value="" style="edgeStyle=orthogonalEdgeStyle;rounded=0;orthogonalLoop=1;jettySize=auto;html=1;exitX=0.5;exitY=1;exitDx=0;exitDy=0;endArrow=none;endFill=0;fontSize=13;" edge="1" parent="1" source="W8oxkkZLSI8McA3j56vo-4" target="W8oxkkZLSI8McA3j56vo-14">
          <mxGeometry relative="1" as="geometry">
            <mxPoint x="405" y="195" as="sourcePoint" />
            <mxPoint x="405" y="825" as="targetPoint" />
          </mxGeometry>
        </mxCell>
        <mxCell id="W8oxkkZLSI8McA3j56vo-4" value="Начало" style="rounded=1;whiteSpace=wrap;html=1;arcSize=50;fontSize=13;" vertex="1" parent="1">
          <mxGeometry x="310" y="165" width="190" height="30" as="geometry" />
        </mxCell>
        <mxCell id="W8oxkkZLSI8McA3j56vo-5" value="аппроксимировать контуры выпуклыми многоугольниками" style="rounded=0;whiteSpace=wrap;html=1;fontSize=13;" vertex="1" parent="1">
          <mxGeometry x="300" y="415" width="210" height="30" as="geometry" />
        </mxCell>
        <mxCell id="W8oxkkZLSI8McA3j56vo-6" value="Цикл i от 1 до количества выпуклых многоугольников" style="shape=loopLimit;whiteSpace=wrap;html=1;fontSize=13;" vertex="1" parent="1">
          <mxGeometry x="300" y="465" width="210" height="30" as="geometry" />
        </mxCell>
        <mxCell id="I4UzzUB1rxEfxgEAjV2_-8" style="edgeStyle=orthogonalEdgeStyle;rounded=0;orthogonalLoop=1;jettySize=auto;html=1;exitX=0.5;exitY=1;exitDx=0;exitDy=0;" edge="1" parent="1" source="W8oxkkZLSI8McA3j56vo-7">
          <mxGeometry relative="1" as="geometry">
            <mxPoint x="410" y="605" as="targetPoint" />
            <Array as="points">
              <mxPoint x="635" y="605" />
            </Array>
          </mxGeometry>
        </mxCell>
        <mxCell id="W8oxkkZLSI8McA3j56vo-7" value="добавить многоугольник в массив par" style="rounded=0;whiteSpace=wrap;html=1;fontSize=13;" vertex="1" parent="1">
          <mxGeometry x="530" y="555" width="210" height="30" as="geometry" />
        </mxCell>
        <mxCell id="W8oxkkZLSI8McA3j56vo-10" value="" style="shape=loopLimit;whiteSpace=wrap;html=1;rotation=-180;fontSize=13;" vertex="1" parent="1">
          <mxGeometry x="300" y="615" width="210" height="30" as="geometry" />
        </mxCell>
        <mxCell id="W8oxkkZLSI8McA3j56vo-11" value="Цикл i от 1&amp;nbsp;до&amp;nbsp;количества &lt;br&gt;выпуклых многоугольников" style="text;html=1;align=center;verticalAlign=middle;resizable=0;points=[];autosize=1;strokeColor=none;fillColor=none;fontSize=13;" vertex="1" parent="1">
          <mxGeometry x="310" y="610" width="190" height="40" as="geometry" />
        </mxCell>
        <mxCell id="W8oxkkZLSI8McA3j56vo-12" value="Конец" style="rounded=1;whiteSpace=wrap;html=1;arcSize=50;fontSize=13;" vertex="1" parent="1">
          <mxGeometry x="805" y="710" width="190" height="30" as="geometry" />
        </mxCell>
        <mxCell id="W8oxkkZLSI8McA3j56vo-14" value="применить фильтр Гаусса к изображению" style="rounded=0;whiteSpace=wrap;html=1;fontSize=13;" vertex="1" parent="1">
          <mxGeometry x="300" y="265" width="210" height="30" as="geometry" />
        </mxCell>
        <mxCell id="W8oxkkZLSI8McA3j56vo-15" value="применить преобразование цветов к изображению" style="rounded=0;whiteSpace=wrap;html=1;fontSize=13;" vertex="1" parent="1">
          <mxGeometry x="300" y="315" width="210" height="30" as="geometry" />
        </mxCell>
        <mxCell id="W8oxkkZLSI8McA3j56vo-16" value="выделить контуры изображения" style="rounded=0;whiteSpace=wrap;html=1;fontSize=13;" vertex="1" parent="1">
          <mxGeometry x="300" y="365" width="210" height="30" as="geometry" />
        </mxCell>
        <mxCell id="I4UzzUB1rxEfxgEAjV2_-1" value="изображение" style="shape=parallelogram;perimeter=parallelogramPerimeter;whiteSpace=wrap;html=1;fixedSize=1;" vertex="1" parent="1">
          <mxGeometry x="300" y="215" width="210" height="30" as="geometry" />
        </mxCell>
        <mxCell id="I4UzzUB1rxEfxgEAjV2_-7" style="edgeStyle=orthogonalEdgeStyle;rounded=0;orthogonalLoop=1;jettySize=auto;html=1;exitX=1;exitY=0.5;exitDx=0;exitDy=0;entryX=0.5;entryY=0;entryDx=0;entryDy=0;" edge="1" parent="1" source="I4UzzUB1rxEfxgEAjV2_-2" target="W8oxkkZLSI8McA3j56vo-7">
          <mxGeometry relative="1" as="geometry" />
        </mxCell>
        <mxCell id="I4UzzUB1rxEfxgEAjV2_-2" value="&lt;font style=&quot;font-size: 13px;&quot;&gt;углы не равны 90&lt;/font&gt;" style="rhombus;whiteSpace=wrap;html=1;" vertex="1" parent="1">
          <mxGeometry x="300" y="515" width="210" height="40" as="geometry" />
        </mxCell>
        <mxCell id="I4UzzUB1rxEfxgEAjV2_-9" value="да" style="text;html=1;align=center;verticalAlign=middle;resizable=0;points=[];autosize=1;strokeColor=none;fillColor=none;" vertex="1" parent="1">
          <mxGeometry x="520" y="503" width="40" height="30" as="geometry" />
        </mxCell>
        <mxCell id="I4UzzUB1rxEfxgEAjV2_-18" value="Цикл &amp;nbsp;по i по массиву&amp;nbsp;par" style="shape=loopLimit;whiteSpace=wrap;html=1;fontSize=13;" vertex="1" parent="1">
          <mxGeometry x="790" y="150" width="210" height="30" as="geometry" />
        </mxCell>
        <mxCell id="I4UzzUB1rxEfxgEAjV2_-19" style="edgeStyle=orthogonalEdgeStyle;rounded=0;orthogonalLoop=1;jettySize=auto;html=1;exitX=0.5;exitY=1;exitDx=0;exitDy=0;" edge="1" parent="1" source="I4UzzUB1rxEfxgEAjV2_-20">
          <mxGeometry relative="1" as="geometry">
            <mxPoint x="900" y="480" as="targetPoint" />
            <Array as="points">
              <mxPoint x="1125" y="480" />
            </Array>
          </mxGeometry>
        </mxCell>
        <mxCell id="I4UzzUB1rxEfxgEAjV2_-20" value="found =&amp;nbsp;found + 1" style="rounded=0;whiteSpace=wrap;html=1;fontSize=13;" vertex="1" parent="1">
          <mxGeometry x="1020" y="430" width="210" height="30" as="geometry" />
        </mxCell>
        <mxCell id="I4UzzUB1rxEfxgEAjV2_-21" value="" style="shape=loopLimit;whiteSpace=wrap;html=1;rotation=-180;fontSize=13;" vertex="1" parent="1">
          <mxGeometry x="790" y="495" width="210" height="30" as="geometry" />
        </mxCell>
        <mxCell id="I4UzzUB1rxEfxgEAjV2_-22" value="Цикл &amp;nbsp;по i по массиву&amp;nbsp;par" style="text;html=1;align=center;verticalAlign=middle;resizable=0;points=[];autosize=1;strokeColor=none;fillColor=none;fontSize=13;" vertex="1" parent="1">
          <mxGeometry x="805" y="495" width="180" height="30" as="geometry" />
        </mxCell>
        <mxCell id="I4UzzUB1rxEfxgEAjV2_-23" style="edgeStyle=orthogonalEdgeStyle;rounded=0;orthogonalLoop=1;jettySize=auto;html=1;exitX=1;exitY=0.5;exitDx=0;exitDy=0;entryX=0.5;entryY=0;entryDx=0;entryDy=0;" edge="1" parent="1" source="I4UzzUB1rxEfxgEAjV2_-24" target="I4UzzUB1rxEfxgEAjV2_-20">
          <mxGeometry relative="1" as="geometry" />
        </mxCell>
        <mxCell id="I4UzzUB1rxEfxgEAjV2_-24" value="&lt;font size=&quot;2&quot;&gt;любой из&amp;nbsp;L, R, B &lt;br&gt;содержит текст&amp;nbsp;&lt;/font&gt;" style="rhombus;whiteSpace=wrap;html=1;" vertex="1" parent="1">
          <mxGeometry x="790" y="390" width="210" height="40" as="geometry" />
        </mxCell>
        <mxCell id="I4UzzUB1rxEfxgEAjV2_-25" value="да" style="text;html=1;align=center;verticalAlign=middle;resizable=0;points=[];autosize=1;strokeColor=none;fillColor=none;" vertex="1" parent="1">
          <mxGeometry x="1030" y="370" width="40" height="30" as="geometry" />
        </mxCell>
        <mxCell id="I4UzzUB1rxEfxgEAjV2_-26" value="A" style="ellipse;whiteSpace=wrap;html=1;aspect=fixed;" vertex="1" parent="1">
          <mxGeometry x="870" y="70" width="50" height="50" as="geometry" />
        </mxCell>
        <mxCell id="I4UzzUB1rxEfxgEAjV2_-28" value="найти (x, y) и (w, h) прямоугольника, описанного вокруг par[i]" style="rounded=0;whiteSpace=wrap;html=1;fontSize=13;" vertex="1" parent="1">
          <mxGeometry x="780" y="200" width="230" height="30" as="geometry" />
        </mxCell>
        <mxCell id="I4UzzUB1rxEfxgEAjV2_-29" value="" style="endArrow=none;dashed=1;html=1;rounded=0;exitX=1;exitY=0.5;exitDx=0;exitDy=0;" edge="1" parent="1" source="I4UzzUB1rxEfxgEAjV2_-28" target="I4UzzUB1rxEfxgEAjV2_-30">
          <mxGeometry width="50" height="50" relative="1" as="geometry">
            <mxPoint x="830" y="440" as="sourcePoint" />
            <mxPoint x="1040" y="215" as="targetPoint" />
          </mxGeometry>
        </mxCell>
        <mxCell id="I4UzzUB1rxEfxgEAjV2_-30" value="" style="strokeWidth=2;html=1;shape=mxgraph.flowchart.annotation_2;align=left;labelPosition=right;pointerEvents=1;" vertex="1" parent="1">
          <mxGeometry x="1010" y="182.5" width="50" height="65" as="geometry" />
        </mxCell>
        <mxCell id="I4UzzUB1rxEfxgEAjV2_-32" value="x, y -- позиция, &amp;nbsp;&lt;br&gt;w, h -- ширина и высота" style="text;html=1;align=center;verticalAlign=middle;resizable=0;points=[];autosize=1;strokeColor=none;fillColor=none;" vertex="1" parent="1">
          <mxGeometry x="1040" y="190" width="160" height="40" as="geometry" />
        </mxCell>
        <mxCell id="I4UzzUB1rxEfxgEAjV2_-33" value="найти прямоугольник L слева от par[i] (x-w, y), w, h" style="rounded=0;whiteSpace=wrap;html=1;fontSize=13;" vertex="1" parent="1">
          <mxGeometry x="790" y="247.5" width="210" height="30" as="geometry" />
        </mxCell>
        <mxCell id="I4UzzUB1rxEfxgEAjV2_-34" value="найти прямоугольник R справа от par[i] (x+w, y), w, h" style="rounded=0;whiteSpace=wrap;html=1;fontSize=13;" vertex="1" parent="1">
          <mxGeometry x="790" y="292" width="210" height="30" as="geometry" />
        </mxCell>
        <mxCell id="I4UzzUB1rxEfxgEAjV2_-35" value="найти прямоугольник B снизу от par[i] (x, y+h), w, h/2" style="rounded=0;whiteSpace=wrap;html=1;fontSize=13;" vertex="1" parent="1">
          <mxGeometry x="790" y="340" width="210" height="30" as="geometry" />
        </mxCell>
        <mxCell id="I4UzzUB1rxEfxgEAjV2_-36" style="edgeStyle=orthogonalEdgeStyle;rounded=0;orthogonalLoop=1;jettySize=auto;html=1;exitX=0.5;exitY=1;exitDx=0;exitDy=0;" edge="1" parent="1">
          <mxGeometry relative="1" as="geometry">
            <mxPoint x="905" y="640" as="targetPoint" />
            <Array as="points">
              <mxPoint x="1130" y="640" />
            </Array>
            <mxPoint x="1130" y="620" as="sourcePoint" />
          </mxGeometry>
        </mxCell>
        <mxCell id="I4UzzUB1rxEfxgEAjV2_-38" style="edgeStyle=orthogonalEdgeStyle;rounded=0;orthogonalLoop=1;jettySize=auto;html=1;exitX=1;exitY=0.5;exitDx=0;exitDy=0;entryX=0.5;entryY=0;entryDx=0;entryDy=0;" edge="1" parent="1" source="I4UzzUB1rxEfxgEAjV2_-39" target="I4UzzUB1rxEfxgEAjV2_-40">
          <mxGeometry relative="1" as="geometry">
            <mxPoint x="1180" y="560" as="targetPoint" />
          </mxGeometry>
        </mxCell>
        <mxCell id="I4UzzUB1rxEfxgEAjV2_-39" value="&lt;font size=&quot;2&quot;&gt;found=длина(&lt;/font&gt;par&lt;font size=&quot;2&quot;&gt;)&lt;/font&gt;" style="rhombus;whiteSpace=wrap;html=1;" vertex="1" parent="1">
          <mxGeometry x="795" y="550" width="210" height="40" as="geometry" />
        </mxCell>
        <mxCell id="I4UzzUB1rxEfxgEAjV2_-40" value="сообщение об отсутствии ошибки" style="shape=parallelogram;perimeter=parallelogramPerimeter;whiteSpace=wrap;html=1;fixedSize=1;" vertex="1" parent="1">
          <mxGeometry x="1030" y="590" width="210" height="30" as="geometry" />
        </mxCell>
        <mxCell id="I4UzzUB1rxEfxgEAjV2_-41" value="сообщение об ошибке" style="shape=parallelogram;perimeter=parallelogramPerimeter;whiteSpace=wrap;html=1;fixedSize=1;" vertex="1" parent="1">
          <mxGeometry x="793" y="660" width="210" height="30" as="geometry" />
        </mxCell>
        <mxCell id="I4UzzUB1rxEfxgEAjV2_-44" value="да" style="text;html=1;align=center;verticalAlign=middle;resizable=0;points=[];autosize=1;strokeColor=none;fillColor=none;" vertex="1" parent="1">
          <mxGeometry x="1010" y="540" width="40" height="30" as="geometry" />
        </mxCell>
        <mxCell id="I4UzzUB1rxEfxgEAjV2_-45" value="A" style="ellipse;whiteSpace=wrap;html=1;aspect=fixed;" vertex="1" parent="1">
          <mxGeometry x="380" y="675" width="50" height="50" as="geometry" />
        </mxCell>
      </root>
    </mxGraphModel>
  </diagram>
  <diagram name="Копия Страница — 1" id="JNierqxnYZ1R45ikq0GH">
    <mxGraphModel grid="1" page="1" gridSize="10" guides="1" tooltips="1" connect="1" arrows="1" fold="1" pageScale="1" pageWidth="827" pageHeight="1169" math="0" shadow="0">
      <root>
        <mxCell id="PTEtYfnl6nI7ooZIq-5v-0" />
        <mxCell id="PTEtYfnl6nI7ooZIq-5v-1" parent="PTEtYfnl6nI7ooZIq-5v-0" />
        <mxCell id="PTEtYfnl6nI7ooZIq-5v-2" value="" style="edgeStyle=orthogonalEdgeStyle;rounded=0;orthogonalLoop=1;jettySize=auto;html=1;exitX=0.5;exitY=1;exitDx=0;exitDy=0;endArrow=none;endFill=0;fontSize=13;" edge="1" parent="PTEtYfnl6nI7ooZIq-5v-1" source="PTEtYfnl6nI7ooZIq-5v-15" target="PTEtYfnl6nI7ooZIq-5v-18">
          <mxGeometry relative="1" as="geometry">
            <mxPoint x="425" y="210" as="sourcePoint" />
            <mxPoint x="425" y="680" as="targetPoint" />
          </mxGeometry>
        </mxCell>
        <mxCell id="PTEtYfnl6nI7ooZIq-5v-3" value="" style="edgeStyle=orthogonalEdgeStyle;rounded=0;orthogonalLoop=1;jettySize=auto;html=1;exitX=0.5;exitY=1;exitDx=0;exitDy=0;endArrow=none;endFill=0;fontSize=13;" edge="1" parent="PTEtYfnl6nI7ooZIq-5v-1" source="PTEtYfnl6nI7ooZIq-5v-5" target="PTEtYfnl6nI7ooZIq-5v-15">
          <mxGeometry relative="1" as="geometry">
            <mxPoint x="425" y="110" as="sourcePoint" />
            <mxPoint x="425" y="740" as="targetPoint" />
          </mxGeometry>
        </mxCell>
        <mxCell id="PTEtYfnl6nI7ooZIq-5v-4" style="edgeStyle=orthogonalEdgeStyle;rounded=0;orthogonalLoop=1;jettySize=auto;html=1;exitX=0.5;exitY=1;exitDx=0;exitDy=0;endArrow=none;endFill=0;fontSize=13;" edge="1" parent="PTEtYfnl6nI7ooZIq-5v-1" source="PTEtYfnl6nI7ooZIq-5v-18" target="PTEtYfnl6nI7ooZIq-5v-13">
          <mxGeometry relative="1" as="geometry" />
        </mxCell>
        <mxCell id="PTEtYfnl6nI7ooZIq-5v-5" value="Начало" style="rounded=1;whiteSpace=wrap;html=1;arcSize=50;fontSize=13;" vertex="1" parent="PTEtYfnl6nI7ooZIq-5v-1">
          <mxGeometry x="330" y="80" width="190" height="30" as="geometry" />
        </mxCell>
        <mxCell id="PTEtYfnl6nI7ooZIq-5v-6" value="cur_velocity = &amp;nbsp;initial_auto_velocity;&lt;br&gt;dt = 1" style="rounded=0;whiteSpace=wrap;html=1;fontSize=13;" vertex="1" parent="PTEtYfnl6nI7ooZIq-5v-1">
          <mxGeometry x="320" y="330" width="210" height="30" as="geometry" />
        </mxCell>
        <mxCell id="PTEtYfnl6nI7ooZIq-5v-7" value="Цикл i от 1 до окончания модельного времени" style="shape=loopLimit;whiteSpace=wrap;html=1;fontSize=13;" vertex="1" parent="PTEtYfnl6nI7ooZIq-5v-1">
          <mxGeometry x="320" y="380" width="210" height="30" as="geometry" />
        </mxCell>
        <mxCell id="PTEtYfnl6nI7ooZIq-5v-8" value="diff = cur_distance - prev_distance" style="rounded=0;whiteSpace=wrap;html=1;fontSize=13;" vertex="1" parent="PTEtYfnl6nI7ooZIq-5v-1">
          <mxGeometry x="320" y="430" width="210" height="30" as="geometry" />
        </mxCell>
        <mxCell id="PTEtYfnl6nI7ooZIq-5v-9" value="cur_velocity += velocity_change;&lt;br&gt;prev_distance = cur_distance;" style="rounded=0;whiteSpace=wrap;html=1;fontSize=13;" vertex="1" parent="PTEtYfnl6nI7ooZIq-5v-1">
          <mxGeometry x="320" y="540" width="210" height="30" as="geometry" />
        </mxCell>
        <mxCell id="PTEtYfnl6nI7ooZIq-5v-10" value="cur_distance += (leader_velocities[i] - cur_velocity) * dt" style="rounded=0;whiteSpace=wrap;html=1;fontSize=13;" vertex="1" parent="PTEtYfnl6nI7ooZIq-5v-1">
          <mxGeometry x="320" y="580" width="210" height="40" as="geometry" />
        </mxCell>
        <mxCell id="PTEtYfnl6nI7ooZIq-5v-11" value="" style="shape=loopLimit;whiteSpace=wrap;html=1;rotation=-180;fontSize=13;" vertex="1" parent="PTEtYfnl6nI7ooZIq-5v-1">
          <mxGeometry x="320" y="630" width="210" height="30" as="geometry" />
        </mxCell>
        <mxCell id="PTEtYfnl6nI7ooZIq-5v-12" value="Цикл i от 1&amp;nbsp;до окончания &lt;br&gt;модельного времени" style="text;html=1;align=center;verticalAlign=middle;resizable=0;points=[];autosize=1;strokeColor=none;fillColor=none;fontSize=13;" vertex="1" parent="PTEtYfnl6nI7ooZIq-5v-1">
          <mxGeometry x="335" y="625" width="180" height="40" as="geometry" />
        </mxCell>
        <mxCell id="PTEtYfnl6nI7ooZIq-5v-13" value="Конец" style="rounded=1;whiteSpace=wrap;html=1;arcSize=50;fontSize=13;" vertex="1" parent="PTEtYfnl6nI7ooZIq-5v-1">
          <mxGeometry x="330" y="680" width="190" height="30" as="geometry" />
        </mxCell>
        <mxCell id="PTEtYfnl6nI7ooZIq-5v-14" value="задать начальное &amp;nbsp;расстояние между ТС&amp;nbsp;initial_distance" style="rounded=0;whiteSpace=wrap;html=1;fontSize=13;" vertex="1" parent="PTEtYfnl6nI7ooZIq-5v-1">
          <mxGeometry x="320" y="130" width="210" height="30" as="geometry" />
        </mxCell>
        <mxCell id="PTEtYfnl6nI7ooZIq-5v-15" value="&lt;font style=&quot;font-size: 13px;&quot;&gt;задать начальную скорость автопилота: initial_auto_velocity&lt;/font&gt;" style="rounded=0;whiteSpace=wrap;html=1;fontSize=13;" vertex="1" parent="PTEtYfnl6nI7ooZIq-5v-1">
          <mxGeometry x="320" y="180" width="210" height="30" as="geometry" />
        </mxCell>
        <mxCell id="PTEtYfnl6nI7ooZIq-5v-16" value="&lt;font style=&quot;font-size: 13px;&quot;&gt;сгенерировать массив скоростей лидера: leader_velocities&lt;/font&gt;" style="rounded=0;whiteSpace=wrap;html=1;fontSize=13;" vertex="1" parent="PTEtYfnl6nI7ooZIq-5v-1">
          <mxGeometry x="320" y="230" width="210" height="30" as="geometry" />
        </mxCell>
        <mxCell id="PTEtYfnl6nI7ooZIq-5v-17" value="cur_distance = prev_distance =&amp;nbsp;initial_distance" style="rounded=0;whiteSpace=wrap;html=1;fontSize=13;" vertex="1" parent="PTEtYfnl6nI7ooZIq-5v-1">
          <mxGeometry x="320" y="280" width="210" height="30" as="geometry" />
        </mxCell>
        <mxCell id="PTEtYfnl6nI7ooZIq-5v-18" value="velocity_change = FS.compute(cur_distance, diff)" style="shape=process;whiteSpace=wrap;html=1;backgroundOutline=1;" vertex="1" parent="PTEtYfnl6nI7ooZIq-5v-1">
          <mxGeometry x="320" y="480" width="210" height="40" as="geometry" />
        </mxCell>
      </root>
    </mxGraphModel>
  </diagram>
  <diagram name="Копия Страница — 1" id="uH0BLv4C-uZ5R3GCDso8">
    <mxGraphModel grid="1" page="1" gridSize="10" guides="1" tooltips="1" connect="1" arrows="1" fold="1" pageScale="1" pageWidth="827" pageHeight="1169" math="0" shadow="0">
      <root>
        <mxCell id="He5kGxPgJudsEJ2YysTx-0" />
        <mxCell id="He5kGxPgJudsEJ2YysTx-1" parent="He5kGxPgJudsEJ2YysTx-0" />
        <mxCell id="He5kGxPgJudsEJ2YysTx-2" value="" style="edgeStyle=orthogonalEdgeStyle;rounded=0;orthogonalLoop=1;jettySize=auto;html=1;exitX=0.5;exitY=1;exitDx=0;exitDy=0;endArrow=none;endFill=0;fontSize=13;" edge="1" parent="He5kGxPgJudsEJ2YysTx-1" source="He5kGxPgJudsEJ2YysTx-15" target="He5kGxPgJudsEJ2YysTx-18">
          <mxGeometry relative="1" as="geometry">
            <mxPoint x="425" y="210" as="sourcePoint" />
            <mxPoint x="425" y="680" as="targetPoint" />
          </mxGeometry>
        </mxCell>
        <mxCell id="He5kGxPgJudsEJ2YysTx-3" value="" style="edgeStyle=orthogonalEdgeStyle;rounded=0;orthogonalLoop=1;jettySize=auto;html=1;exitX=0.5;exitY=1;exitDx=0;exitDy=0;endArrow=none;endFill=0;fontSize=13;" edge="1" parent="He5kGxPgJudsEJ2YysTx-1" source="He5kGxPgJudsEJ2YysTx-5" target="He5kGxPgJudsEJ2YysTx-15">
          <mxGeometry relative="1" as="geometry">
            <mxPoint x="425" y="110" as="sourcePoint" />
            <mxPoint x="425" y="740" as="targetPoint" />
          </mxGeometry>
        </mxCell>
        <mxCell id="He5kGxPgJudsEJ2YysTx-4" style="edgeStyle=orthogonalEdgeStyle;rounded=0;orthogonalLoop=1;jettySize=auto;html=1;exitX=0.5;exitY=1;exitDx=0;exitDy=0;endArrow=none;endFill=0;fontSize=13;" edge="1" parent="He5kGxPgJudsEJ2YysTx-1" source="He5kGxPgJudsEJ2YysTx-18" target="He5kGxPgJudsEJ2YysTx-13">
          <mxGeometry relative="1" as="geometry" />
        </mxCell>
        <mxCell id="He5kGxPgJudsEJ2YysTx-5" value="Начало" style="rounded=1;whiteSpace=wrap;html=1;arcSize=50;fontSize=13;" vertex="1" parent="He5kGxPgJudsEJ2YysTx-1">
          <mxGeometry x="330" y="80" width="190" height="30" as="geometry" />
        </mxCell>
        <mxCell id="He5kGxPgJudsEJ2YysTx-6" value="cur_velocity = &amp;nbsp;initial_auto_velocity;&lt;br&gt;dt = 1" style="rounded=0;whiteSpace=wrap;html=1;fontSize=13;" vertex="1" parent="He5kGxPgJudsEJ2YysTx-1">
          <mxGeometry x="320" y="330" width="210" height="30" as="geometry" />
        </mxCell>
        <mxCell id="He5kGxPgJudsEJ2YysTx-7" value="Цикл i от 1 до окончания модельного времени" style="shape=loopLimit;whiteSpace=wrap;html=1;fontSize=13;" vertex="1" parent="He5kGxPgJudsEJ2YysTx-1">
          <mxGeometry x="320" y="380" width="210" height="30" as="geometry" />
        </mxCell>
        <mxCell id="He5kGxPgJudsEJ2YysTx-8" value="diff = cur_distance - prev_distance" style="rounded=0;whiteSpace=wrap;html=1;fontSize=13;" vertex="1" parent="He5kGxPgJudsEJ2YysTx-1">
          <mxGeometry x="320" y="430" width="210" height="30" as="geometry" />
        </mxCell>
        <mxCell id="He5kGxPgJudsEJ2YysTx-9" value="cur_velocity += velocity_change;&lt;br&gt;prev_distance = cur_distance;" style="rounded=0;whiteSpace=wrap;html=1;fontSize=13;" vertex="1" parent="He5kGxPgJudsEJ2YysTx-1">
          <mxGeometry x="320" y="540" width="210" height="30" as="geometry" />
        </mxCell>
        <mxCell id="He5kGxPgJudsEJ2YysTx-10" value="cur_distance += (leader_velocities[i] - cur_velocity) * dt" style="rounded=0;whiteSpace=wrap;html=1;fontSize=13;" vertex="1" parent="He5kGxPgJudsEJ2YysTx-1">
          <mxGeometry x="320" y="580" width="210" height="40" as="geometry" />
        </mxCell>
        <mxCell id="He5kGxPgJudsEJ2YysTx-11" value="" style="shape=loopLimit;whiteSpace=wrap;html=1;rotation=-180;fontSize=13;" vertex="1" parent="He5kGxPgJudsEJ2YysTx-1">
          <mxGeometry x="320" y="630" width="210" height="30" as="geometry" />
        </mxCell>
        <mxCell id="He5kGxPgJudsEJ2YysTx-12" value="Цикл i от 1&amp;nbsp;до окончания &lt;br&gt;модельного времени" style="text;html=1;align=center;verticalAlign=middle;resizable=0;points=[];autosize=1;strokeColor=none;fillColor=none;fontSize=13;" vertex="1" parent="He5kGxPgJudsEJ2YysTx-1">
          <mxGeometry x="335" y="625" width="180" height="40" as="geometry" />
        </mxCell>
        <mxCell id="He5kGxPgJudsEJ2YysTx-13" value="Конец" style="rounded=1;whiteSpace=wrap;html=1;arcSize=50;fontSize=13;" vertex="1" parent="He5kGxPgJudsEJ2YysTx-1">
          <mxGeometry x="330" y="680" width="190" height="30" as="geometry" />
        </mxCell>
        <mxCell id="He5kGxPgJudsEJ2YysTx-14" value="задать начальное &amp;nbsp;расстояние между ТС&amp;nbsp;initial_distance" style="rounded=0;whiteSpace=wrap;html=1;fontSize=13;" vertex="1" parent="He5kGxPgJudsEJ2YysTx-1">
          <mxGeometry x="320" y="130" width="210" height="30" as="geometry" />
        </mxCell>
        <mxCell id="He5kGxPgJudsEJ2YysTx-15" value="&lt;font style=&quot;font-size: 13px;&quot;&gt;задать начальную скорость автопилота: initial_auto_velocity&lt;/font&gt;" style="rounded=0;whiteSpace=wrap;html=1;fontSize=13;" vertex="1" parent="He5kGxPgJudsEJ2YysTx-1">
          <mxGeometry x="320" y="180" width="210" height="30" as="geometry" />
        </mxCell>
        <mxCell id="He5kGxPgJudsEJ2YysTx-16" value="&lt;font style=&quot;font-size: 13px;&quot;&gt;сгенерировать массив скоростей лидера: leader_velocities&lt;/font&gt;" style="rounded=0;whiteSpace=wrap;html=1;fontSize=13;" vertex="1" parent="He5kGxPgJudsEJ2YysTx-1">
          <mxGeometry x="320" y="230" width="210" height="30" as="geometry" />
        </mxCell>
        <mxCell id="He5kGxPgJudsEJ2YysTx-17" value="cur_distance = prev_distance =&amp;nbsp;initial_distance" style="rounded=0;whiteSpace=wrap;html=1;fontSize=13;" vertex="1" parent="He5kGxPgJudsEJ2YysTx-1">
          <mxGeometry x="320" y="280" width="210" height="30" as="geometry" />
        </mxCell>
        <mxCell id="He5kGxPgJudsEJ2YysTx-18" value="velocity_change = FS.compute(cur_distance, diff)" style="shape=process;whiteSpace=wrap;html=1;backgroundOutline=1;" vertex="1" parent="He5kGxPgJudsEJ2YysTx-1">
          <mxGeometry x="320" y="480" width="210" height="40" as="geometry" />
        </mxCell>
      </root>
    </mxGraphModel>
  </diagram>
</mxfile>
